<svg width="105" height="45" viewBox="0 0 105 45" fill="none" xmlns="http://www.w3.org/2000/svg">
<path fill-rule="evenodd" clip-rule="evenodd" d="M26.5943 0.922474C26.5943 1.12495 26.8869 2.02495 26.9543 2.18248C28.4844 2.04742 29.9244 1.48495 32.6694 1.48495C36.4045 1.48495 39.6445 1.86742 42.6144 3.19508C43.2445 3.46496 43.7618 3.71261 44.3919 4.02743C44.707 4.20743 44.8643 4.32002 45.1793 4.50002C46.3944 5.2425 46.3944 5.30991 47.5193 6.16497C49.7018 7.85239 51.8843 11.1601 52.9868 13.8376C54.2919 17.0324 55.0569 21.4426 54.5618 24.9525C54.2018 27.4051 54.0218 28.71 53.0544 31.1175C51.6144 34.695 49.3193 37.5076 46.2818 39.7575C40.5669 43.9649 32.422 44.5049 25.8518 41.9849C22.1619 40.5676 21.5994 39.5775 19.777 38.6101C19.3718 38.8575 19.1019 39.24 18.8545 39.6224C19.1693 40.095 21.1943 41.355 21.8019 41.6926C25.5595 43.7175 29.362 44.8425 33.2543 45H34.9645C37.8445 44.8874 40.7469 44.2351 43.6494 42.975C45.1793 42.3225 46.7094 41.3101 47.9694 40.32C51.0295 37.935 52.9868 35.055 54.5169 31.4325C55.1243 29.9925 56.0468 26.3476 56.092 24.6599C56.1594 22.1851 56.272 22.1851 55.9569 19.4174C55.4394 14.625 53.0769 9.56252 49.7018 6.16497C49.4769 5.94003 49.2295 5.76003 48.9818 5.51262C48.6895 5.19756 48.5993 5.12991 48.2618 4.86002C46.4393 3.46496 45.1119 2.6326 42.9294 1.7326C40.1618 0.584943 36.922 0 33.1193 0C32.8719 0 26.5943 0.33753 26.5943 0.922474Z" fill="#CEB16C"/>
<path fill-rule="evenodd" clip-rule="evenodd" d="M58.14 25.0198C58.14 27.7423 57.6898 29.2272 59.4 29.2272C59.6923 29.2272 59.94 28.9571 60.0523 28.7546C60.5024 27.9223 60.3224 21.7121 60.3224 20.5647C60.5249 20.9023 61.38 24.8398 61.4923 25.3122C61.7175 26.1223 61.8748 26.8648 62.0775 27.6971C62.3025 28.5971 62.4375 29.2722 63.5175 29.2722C64.9575 29.3171 65.0474 27.4272 65.6324 25.4247L66.7124 21.2623C66.7124 21.2623 66.78 21.0148 66.78 20.9921L66.9373 20.6773C66.9373 23.2872 66.825 25.4922 66.825 28.1023C66.825 28.9122 67.185 29.3398 67.9499 29.3398C69.0973 29.3398 68.985 28.0798 68.985 26.9546C68.985 25.7623 68.985 24.5922 68.985 23.4223C68.985 18.1348 69.9524 17.9321 66.465 17.9321C65.6324 17.9321 65.52 18.5622 65.2724 19.2598C65.0474 19.9573 64.9124 20.5872 64.7099 21.3072L63.4948 25.3573C63.4499 24.7047 62.6849 21.9823 62.4375 21.0373C62.28 20.3398 62.1 19.5973 61.9425 18.9222C61.6274 17.6847 60.9523 17.8198 59.6249 17.8198C57.8698 17.8198 58.2523 19.1247 58.275 20.7897C58.275 21.5998 58.1175 21.9823 58.14 22.8373C58.14 23.5573 58.14 24.2773 58.14 25.0198Z" fill="#CEB16C"/>
<path fill-rule="evenodd" clip-rule="evenodd" d="M20.88 5.37775C20.2049 5.37775 20.0474 5.04022 19.3049 5.01774C19.395 4.59009 19.3725 4.43257 18.7424 4.00515C18.1125 4.14021 18.4274 4.41009 17.8199 4.56762C17.7975 4.11774 17.8649 4.23009 17.6175 3.96021C17.0775 3.28515 16.7175 3.91527 16.4473 4.11774C15.8849 3.98268 15.255 3.66762 14.6249 3.66762C14.3325 3.66762 13.7024 4.27527 13.7024 4.56762C13.7024 5.26516 17.3249 6.30022 18.4049 7.87505L16.1325 10.5526C15.6824 11.0701 15.3673 10.8002 14.175 10.7326C14.1073 10.7326 12.4424 10.3052 12.4424 11.2951C12.4424 11.6551 12.8925 11.7677 13.2073 11.9027C13.59 12.1052 13.7925 12.2175 14.2199 12.3975C15.4799 12.9376 13.6799 13.5901 15.6599 13.5901C15.9975 14.2427 16.3125 15.4803 16.9199 15.8852C18.1125 15.5477 17.3925 14.2652 17.3698 12.3301C18.6525 11.4751 19.215 10.8002 20.3175 9.81012C21.3523 10.5077 22.1175 12.1726 22.7699 13.3203C23.0849 13.8827 23.1975 14.4901 23.7375 14.4901C24.0975 14.4901 24.6825 13.8603 24.6375 13.4101C24.615 13.2526 24.1649 11.8803 24.0975 11.7677C24.3225 11.6101 24.7274 11.3852 24.6375 11.0027C24.5474 10.6652 24.12 10.4402 23.7375 10.3951C23.8723 9.90024 24.6375 9.69777 23.895 9.09012C23.355 8.64023 23.3323 9.24765 23.04 8.14517C22.995 7.89776 22.9049 7.69506 22.8375 7.42517C23.0849 7.0427 23.4225 6.72764 23.7825 6.43505C24.0523 6.2101 24.0523 6.27775 24.2775 6.00763C25.4474 4.72515 26.4148 3.82515 26.0323 2.18267C23.6025 1.57526 21.2175 5.37775 20.88 5.37775Z" fill="#CEB16C"/>
<path fill-rule="evenodd" clip-rule="evenodd" d="M28.2148 28.89C28.5523 28.89 29.0024 28.6423 29.1824 28.3949C29.6548 27.6749 29.4523 24.9075 29.4523 23.7598H34.2674V27.63C34.2674 28.6199 34.7397 28.89 35.5274 28.89C36.5173 28.89 36.5397 28.0574 36.5397 27.0675L36.6523 18.3823C36.6523 17.0324 34.3797 16.965 34.3797 18.4949V21.9374L29.4523 21.8248C29.4523 19.665 30.1049 17.2573 28.3274 17.2573C27.2249 17.2573 27.1797 18.3823 27.1797 19.5299C27.2024 20.6998 27.1797 21.8924 27.1797 23.0623C27.1797 25.0875 26.4372 28.89 28.2148 28.89Z" fill="#CEB16C"/>
<path fill-rule="evenodd" clip-rule="evenodd" d="M71.2812 21.8248V28.215C71.2812 29.3174 72.4514 29.2498 73.5539 29.2273C74.6563 29.2273 75.7813 29.2498 76.8838 29.2273C77.8287 29.2273 79.2912 29.5199 79.7188 28.9799C80.1238 28.4624 80.1013 27.4273 78.3687 27.4273H73.5539V24.21C74.3637 24.21 74.6788 24.3223 75.5112 24.3223C77.1087 24.3223 79.6964 24.7048 79.3364 23.2423C79.1788 22.6124 78.6388 22.4999 77.8963 22.4999C76.4788 22.4549 74.9939 22.4999 73.5539 22.4999C73.7563 21.6223 73.6662 20.8124 73.6662 19.7549L78.7062 19.8672C79.3813 19.8672 79.8536 19.6423 79.8536 18.9675C79.8536 17.8423 78.5487 18.0448 77.4462 18.0448C76.2988 18.0448 75.1512 18.0448 74.0262 18.0448C71.5963 18.0675 71.2812 17.3699 71.2812 21.8248Z" fill="#CEB16C"/>
<path fill-rule="evenodd" clip-rule="evenodd" d="M16.5599 20.2277C16.5599 24.4579 22.95 22.8154 22.95 25.4702C22.95 27.0453 19.935 27.8102 18.7875 26.1228C18.5848 25.8302 18.1125 24.3228 17.4824 24.3228C15.1423 24.3228 16.29 28.7779 20.7676 28.7779C23.2873 28.7779 25.2224 27.5628 25.2224 25.0204C25.2224 21.0828 18.7424 22.2078 18.7424 20.0929C18.7424 18.8554 20.2275 18.8554 20.9925 18.8554C22.8824 18.8554 22.4999 21.0154 23.7374 21.0154C25.5599 21.0154 25.4249 17.1453 20.43 17.1453C18.495 17.1453 16.5599 18.2929 16.5599 20.2277Z" fill="#CEB16C"/>
<path fill-rule="evenodd" clip-rule="evenodd" d="M47.7461 22.8374C47.1836 22.8374 46.9585 22.725 46.2612 22.725V19.4174C47.6335 19.4174 50.1535 19.17 50.1535 20.79C50.1535 22.0724 49.9061 22.8374 47.7461 22.8374ZM43.8535 27.0675V27.7423C43.8535 29.1824 45.4286 29.4749 45.9911 28.53C46.216 28.1251 46.2612 25.3125 46.2612 24.5475C49.0735 24.5475 52.561 24.9525 52.561 20.9026C52.561 17.7524 49.6585 17.685 47.7461 17.685C46.8686 17.7075 45.8785 17.505 45.1585 17.6401C43.5612 17.9099 43.9886 19.2149 43.9886 21.825C43.9886 22.6799 43.8535 23.3324 43.8535 24.3226C43.8535 25.245 43.8535 26.145 43.8535 27.0675Z" fill="#CEB16C"/>
<path fill-rule="evenodd" clip-rule="evenodd" d="M39.0588 24.885C39.0588 26.865 38.6539 29.0251 40.2062 29.0251C41.6912 29.0251 41.3539 27.1576 41.3539 26.0327C41.3539 25.245 41.4663 24.9302 41.4663 24.0976V18.4951C41.4663 17.1001 39.3739 16.965 39.1714 18.3826C39.1038 18.9226 39.1714 19.9801 39.1714 20.565C39.1714 21.3751 39.0588 21.7576 39.0588 22.6127C39.0588 23.3776 39.0588 24.1426 39.0588 24.885Z" fill="#CEB16C"/>
<path fill-rule="evenodd" clip-rule="evenodd" d="M0 31.7474H26.1451V30.8474H0V31.7474Z" fill="#CEB16C"/>
<path fill-rule="evenodd" clip-rule="evenodd" d="M0.111328 36.2025H26.2563V35.3025H0.111328V36.2025Z" fill="#CEB16C"/>
<path fill-rule="evenodd" clip-rule="evenodd" d="M3.30762 33.93H29.4526V33.1201H3.30762V33.93Z" fill="#CEB16C"/>
<path d="M66.9518 30.2323C67.3652 30.2323 67.7025 30.3683 67.9637 30.6403C68.2357 30.9123 68.3717 31.2659 68.3717 31.7011V40.4327C68.3717 40.8788 68.2411 41.2379 67.98 41.5099C67.7189 41.7819 67.3816 41.9179 66.9681 41.9179C66.4785 41.9179 66.1085 41.7547 65.8583 41.4283L60.8968 35.2427V40.4327C60.8968 40.8788 60.7717 41.2379 60.5214 41.5099C60.2712 41.7819 59.9339 41.9179 59.5095 41.9179C59.0961 41.9179 58.7588 41.7819 58.4977 41.5099C58.2365 41.2379 58.106 40.8788 58.106 40.4327V31.7011C58.106 31.2659 58.2365 30.9123 58.4977 30.6403C58.7588 30.3683 59.0961 30.2323 59.5095 30.2323C59.9774 30.2323 60.3419 30.3955 60.603 30.7219L65.5645 36.8911V31.7011C65.5645 31.255 65.6896 30.9014 65.9399 30.6403C66.201 30.3683 66.5383 30.2323 66.9518 30.2323ZM75.9253 41.9669C74.7502 41.9669 73.7275 41.7275 72.857 41.2488C71.9975 40.7591 71.3338 40.0737 70.8659 39.1924C70.3981 38.3002 70.1641 37.2556 70.1641 36.0588C70.1641 34.8619 70.3981 33.8228 70.8659 32.9415C71.3338 32.0493 71.9975 31.3638 72.857 30.8851C73.7275 30.4064 74.7502 30.167 75.9253 30.167C77.1004 30.167 78.1177 30.4064 78.9773 30.8851C79.8477 31.3638 80.5114 32.0493 80.9684 32.9415C81.4363 33.8228 81.6702 34.8619 81.6702 36.0588C81.6702 37.2556 81.4363 38.3002 80.9684 39.1924C80.5006 40.0737 79.8314 40.7591 78.961 41.2488C78.1014 41.7275 77.0895 41.9669 75.9253 41.9669ZM75.9253 39.6657C76.7958 39.6657 77.4758 39.361 77.9654 38.7517C78.455 38.1315 78.6999 37.2339 78.6999 36.0588C78.6999 34.8837 78.4496 33.9915 77.9491 33.3822C77.4595 32.7729 76.7849 32.4682 75.9253 32.4682C75.0549 32.4682 74.3749 32.7729 73.8852 33.3822C73.3956 33.9806 73.1508 34.8728 73.1508 36.0588C73.1508 37.2447 73.3956 38.1424 73.8852 38.7517C74.3749 39.361 75.0549 39.6657 75.9253 39.6657ZM97.1818 31.1462C97.2906 30.8416 97.4646 30.6077 97.704 30.4444C97.9543 30.2812 98.2263 30.1996 98.5201 30.1996C98.8791 30.1996 99.1892 30.3139 99.4503 30.5424C99.7224 30.7709 99.8583 31.081 99.8583 31.4726C99.8583 31.6467 99.8148 31.8643 99.7278 32.1255L96.4473 41.004C96.3385 41.3086 96.1372 41.548 95.8435 41.7221C95.5606 41.8853 95.245 41.9669 94.8969 41.9669C94.5487 41.9669 94.2331 41.8853 93.9503 41.7221C93.6674 41.548 93.4715 41.3086 93.3627 41.004L91.241 34.949L89.0214 41.004C88.9017 41.3086 88.7004 41.548 88.4175 41.7221C88.1346 41.8853 87.8245 41.9669 87.4873 41.9669C87.1391 41.9669 86.8235 41.8853 86.5407 41.7221C86.2578 41.548 86.0619 41.3086 85.9531 41.004L82.6563 32.1255C82.5802 31.9079 82.5421 31.7011 82.5421 31.5053C82.5421 31.1027 82.6835 30.7872 82.9664 30.5587C83.2602 30.3193 83.5975 30.1996 83.9783 30.1996C84.283 30.1996 84.5604 30.2812 84.8107 30.4444C85.0718 30.5968 85.2568 30.8307 85.3656 31.1462L87.6015 37.5766L89.968 31.1462C90.0768 30.8416 90.2509 30.6077 90.4903 30.4444C90.7405 30.2812 91.0125 30.1996 91.3063 30.1996C91.6001 30.1996 91.8666 30.2812 92.106 30.4444C92.3454 30.6077 92.5195 30.847 92.6283 31.1626L94.8479 37.7235L97.1818 31.1462ZM102.76 38.0173C102.532 38.0173 102.336 37.9411 102.173 37.7888C102.02 37.6364 101.923 37.4188 101.879 37.1359L101.03 32.0602C101.019 31.9949 101.014 31.9079 101.014 31.7991C101.014 31.3094 101.177 30.9286 101.504 30.6566C101.841 30.3737 102.26 30.2323 102.76 30.2323C103.272 30.2323 103.691 30.3737 104.017 30.6566C104.343 30.9395 104.507 31.3258 104.507 31.8154C104.507 31.9242 104.501 32.0112 104.49 32.0765L103.625 37.1359C103.593 37.4188 103.495 37.6364 103.332 37.7888C103.179 37.9411 102.989 38.0173 102.76 38.0173ZM102.76 41.9179C102.303 41.9179 101.923 41.7656 101.618 41.4609C101.324 41.1563 101.177 40.7809 101.177 40.3348C101.177 39.8887 101.324 39.5133 101.618 39.2087C101.923 38.904 102.303 38.7517 102.76 38.7517C103.206 38.7517 103.576 38.904 103.87 39.2087C104.175 39.5133 104.327 39.8887 104.327 40.3348C104.327 40.7809 104.175 41.1563 103.87 41.4609C103.576 41.7656 103.206 41.9179 102.76 41.9179Z" fill="#CEB16C"/>
</svg>
